<?xml version="1.0" encoding="utf-8"?>
<!-- Generator: Adobe Illustrator 24.3.0, SVG Export Plug-In . SVG Version: 6.00 Build 0)  -->
<svg version="1.1" id="Camada_2" xmlns="http://www.w3.org/2000/svg" xmlns:xlink="http://www.w3.org/1999/xlink" x="0px" y="0px"
	 viewBox="0 0 128 320" style="enable-background:new 0 0 128 320;" xml:space="preserve">
<style type="text/css">
	.st0{fill:#1FA1B4;}
	.st1{fill:#5E99D2;}
	.st2{fill:#49BDD2;}
</style>
<path class="st0" d="M48,279.2c-8.5-30.6-13-62.7-13-95.8C35,117.6,52.9,55.7,84.2,1.9C31.4,65.8,0,146.2,0,233.6
	c0,29.7,3.6,58.6,10.5,86.4H56C52.5,306.7,49.9,293.1,48,279.2z"/>
<path class="st1" d="M48,279.2c-2.2-15.9-3.3-32.1-3.3-48.6C44.7,143.8,75.8,63.8,128,0v0H85.8c-0.5,0.6-1,1.3-1.6,1.9
	C52.9,55.7,35,117.6,35,183.5C35,216.5,39.5,248.7,48,279.2z"/>
<path class="st2" d="M128,320V0C70.2,63.8,35.8,143.8,35.8,230.7c0,16.5,1.2,32.7,3.6,48.6c4.3,13.9,9.4,27.5,15.5,40.8H128z"/>
</svg>
